<svg width="177" height="53" viewBox="0 0 177 53" fill="none" xmlns="http://www.w3.org/2000/svg">
<g clip-path="url(#clip0_3814_630)">
<path d="M29.9368 10.0102H38.1685V15.4602H38.4911C39.6022 11.5952 42.4217 9.55908 45.8388 9.55908C46.6989 9.55908 47.7503 9.68099 48.515 9.86388V17.545C47.7144 17.2769 46.1016 17.0817 44.9307 17.0817C41.1793 17.0817 38.4313 19.7275 38.4313 23.5681V41.2347H29.9368V10.0102Z" fill="black"></path>
<path d="M49.47 32.5285C49.47 25.5545 54.906 23.4818 60.9634 22.9088C66.2801 22.3844 68.3708 22.1163 68.3708 20.1045V19.9826C68.3708 17.4222 66.7221 15.9347 63.8309 15.9347C60.7843 15.9347 58.9682 17.4588 58.3948 19.5315L50.5453 18.8853C51.7161 13.1915 56.543 9.60693 63.8787 9.60693C70.6887 9.60693 76.8655 12.7404 76.8655 20.1777V41.2459H68.813V36.9177H68.574C67.0805 39.8316 64.1535 41.8434 59.6253 41.8434C53.795 41.8312 49.47 38.7099 49.47 32.5285ZM68.4306 30.0778V26.7615C67.4151 27.4564 64.3805 27.8954 62.5285 28.1636C59.5417 28.5903 57.5704 29.7852 57.5704 32.2358C57.5704 34.6134 59.4462 35.8569 62.0507 35.8569C65.7903 35.8569 68.4306 33.3576 68.4306 30.0778Z" fill="black"></path>
<path d="M81.363 10.0581H89.7263V15.3008H90.1086C91.2437 12.7648 93.6928 9.64355 98.8183 9.64355C105.533 9.64355 111.208 14.9716 111.208 25.713C111.208 36.1618 105.772 41.7947 98.7945 41.7947C93.8481 41.7947 91.2795 38.8807 90.1086 36.2837H89.8458V52.9994H81.363V10.0581ZM96.1062 34.906C100.276 34.906 102.546 31.1264 102.546 25.6764C102.546 20.263 100.312 16.5444 96.1062 16.5444C91.9844 16.5444 89.6665 20.1045 89.6665 25.6764C89.6665 31.2483 92.0203 34.906 96.1062 34.906Z" fill="black"></path>
<path d="M114.281 10.0581H122.656V15.3008H123.039C124.174 12.7648 126.623 9.64355 131.748 9.64355C138.462 9.64355 144.137 14.9716 144.137 25.713C144.137 36.1618 138.702 41.7947 131.724 41.7947C126.778 41.7947 124.21 38.8807 123.039 36.2837H122.776V52.9994H114.281V10.0581ZM129.024 34.906C133.194 34.906 135.464 31.1264 135.464 25.6764C135.464 20.263 133.23 16.5444 129.024 16.5444C124.903 16.5444 122.585 20.1045 122.585 25.6764C122.585 31.2483 124.95 34.906 129.024 34.906Z" fill="black"></path>
<path d="M146.982 25.8232C146.982 16.1791 152.824 9.65625 161.833 9.65625C169.921 9.65625 176.217 14.8989 176.217 25.5185V27.8959H155.369V27.9203C155.369 32.5778 158.057 35.443 162.298 35.443C165.129 35.443 167.316 34.1994 168.177 31.8219L176.026 32.3461C174.831 38.1375 169.73 41.9049 162.155 41.9049C152.741 41.9049 146.982 35.7234 146.982 25.8232ZM168.225 22.5313C168.201 18.8127 165.655 16.1303 161.964 16.1303C158.201 16.1303 155.548 18.9833 155.369 22.5313H168.225Z" fill="black"></path>
<path d="M0 0V7.25443H8.62605H25.233H27.0251V0H0Z" fill="black"></path>
<path d="M0 18.5078V41.2464H8.62605V25.7744H25.233V18.5078H8.62605H0Z" fill="black"></path>
</g>
<defs>
<clipPath id="clip0_3814_630">
<rect width="176.225" height="53" fill="white"></rect>
</clipPath>
</defs>
</svg>